<svg height="480pt" viewBox="0 0 480 480" width="480pt" xmlns="http://www.w3.org/2000/svg" xmlns:xlink="http://www.w3.org/1999/xlink"><linearGradient id="a"><stop offset="0" stop-color="#7ed4ef"/><stop offset=".229" stop-color="#66bfe6"/><stop offset=".711" stop-color="#298bd0"/><stop offset="1" stop-color="#0169c2"/></linearGradient><linearGradient id="b" gradientUnits="userSpaceOnUse" x1="-16" x2="514.176" xlink:href="#a" y1="240" y2="240"/><linearGradient id="c" gradientUnits="userSpaceOnUse" x1="-16" x2="514.176" xlink:href="#a" y1="40" y2="40"/><linearGradient id="d" gradientUnits="userSpaceOnUse" x1="-16" x2="514.176" xlink:href="#a" y1="400" y2="400"/><linearGradient id="e" gradientUnits="userSpaceOnUse" x1="-16" x2="514.176" xlink:href="#a" y1="136" y2="136"/><linearGradient id="f" gradientUnits="userSpaceOnUse" x1="-16" x2="514.176" xlink:href="#a" y1="248" y2="248"/><path d="m472 16h-25.472656c-3.378906-9.554688-12.394532-15.9570312-22.527344-16h-240c-10.132812.0429688-19.148438 6.445312-22.527344 16h-25.472656c-4.417969 0-8 3.582031-8 8v32c0 4.417969 3.582031 8 8 8h25.472656c3.378906 9.554688 12.394532 15.957031 22.527344 16h32v16h-72c-4.417969 0-8 3.582031-8 8v24h-8c-13.253906 0-24 10.746094-24 24v224c0 8.835938-7.164062 16-16 16s-16-7.164062-16-16v-88h16v-80h-16v-116c0-19.882812-16.117188-36-36-36s-36 16.117188-36 36v20h16v-20c0-11.046875 8.953125-20 20-20s20 8.953125 20 20v116h-16v32h-16v-48h-16v80h16v-16h16v32h16v88c0 17.671875 14.328125 32 32 32s32-14.328125 32-32v-224c0-4.417969 3.582031-8 8-8h8v24c0 4.417969 3.582031 8 8 8h8v24c0 4.417969 3.582031 8 8 8h8v216c0 30.929688 25.070312 56 56 56s56-25.070312 56-56v-216h8c4.417969 0 8-3.582031 8-8v-24h16v24c0 4.417969 3.582031 8 8 8h8v216c0 30.929688 25.070312 56 56 56s56-25.070312 56-56v-216h8c4.417969 0 8-3.582031 8-8v-24h8c4.417969 0 8-3.582031 8-8v-64c0-4.417969-3.582031-8-8-8h-72v-16h32c10.132812-.042969 19.148438-6.445312 22.527344-16h25.472656c4.417969 0 8-3.582031 8-8v-32c0-4.417969-3.582031-8-8-8zm-416 208h16v48h-16zm88-192h16v16h-16zm120 392c0 22.089844-17.910156 40-40 40s-40-17.910156-40-40v-216h80zm16-232h-112v-16h112zm144 232c0 22.089844-17.910156 40-40 40s-40-17.910156-40-40v-216h80zm16-232h-112v-16h112zm16-32h-304v-16h56v-16h-56v-16h304zm-80-64h-144v-16h144zm48-32h-32v-24h-16v24h-144v-24h-16v24h-32c-4.417969 0-8-3.582031-8-8v-32c0-4.417969 3.582031-8 8-8h240c4.417969 0 8 3.582031 8 8v32c0 4.417969-3.582031 8-8 8zm40-16h-16v-16h16zm0 0" fill="url(#b)"/><g fill="url(#c)"><path d="m280 32h48v16h-48zm0 0"/><path d="m344 32h16v16h-16zm0 0"/><path d="m248 32h16v16h-16zm0 0"/></g><path d="m384 448c13.253906 0 24-10.746094 24-24v-72h-48v72c0 13.253906 10.746094 24 24 24zm-8-80h16v56c0 4.417969-3.582031 8-8 8s-8-3.582031-8-8zm0 0" fill="url(#d)"/><path d="m224 448c13.253906 0 24-10.746094 24-24v-72h-48v72c0 13.253906 10.746094 24 24 24zm-8-80h16v56c0 4.417969-3.582031 8-8 8s-8-3.582031-8-8zm0 0" fill="url(#d)"/><path d="m224 128h16v16h-16zm0 0" fill="url(#e)"/><path d="m216 240h16v-16h-24c-4.417969 0-8 3.582031-8 8v40h16zm0 0" fill="url(#f)"/><path d="m376 240h16v-16h-24c-4.417969 0-8 3.582031-8 8v40h16zm0 0" fill="url(#f)"/></svg>